<svg xmlns="http://www.w3.org/2000/svg" viewBox="0 0 888.77 979.38"><defs><style>.cls-1{fill:none;stroke:#fff;stroke-miterlimit:10;stroke-width:9px;opacity:0;}.cls-2{fill:#fff;}</style></defs><title>Honey 3</title><g id="Layer_2" data-name="Layer 2"><g id="Layer_11" data-name="Layer 11"><path class="cls-1" d="M576.4,90.57h0A144.29,144.29,0,0,0,724,175.8h0c124.69-13.56,206.11,127.46,132,228.66h0a144.29,144.29,0,0,0,0,170.46h0c74.09,101.2-7.33,242.22-132,228.66h0A144.29,144.29,0,0,0,576.4,888.81h0c-50.6,114.76-213.43,114.76-264,0h0a144.27,144.27,0,0,0-147.61-85.23h0C40.06,817.14-41.36,676.12,32.73,574.92h0a144.29,144.29,0,0,0,0-170.46h0c-74.09-101.2,7.33-242.22,132-228.66h0A144.27,144.27,0,0,0,312.36,90.57h0C363-24.19,525.8-24.19,576.4,90.57Z"/><path class="cls-2" d="M354.79,541.41c9.38,0,15.95,4.69,23.45,17.12,12.9,23,35.42,35.65,64.26,35.65,38.23,0,62.86-20.64,62.86-53,0-32.13-25.1-53.7-62.62-53.7h-25.8c-12.66,0-21.81-9.38-21.81-22.05,0-12.19,8.91-21.34,21.81-21.34h24.39c31.43,0,54.18-20.64,54.18-49.25,0-28.85-22.28-48.31-54.88-48.31-25.33,0-44.56,12.43-55.59,34.71-6.09,12.43-13.13,17.35-23.45,17.35-13.13,0-22.28-9.38-22.28-23,0-37.06,42.92-71.77,102.49-71.77,61.92,0,105.77,34.95,105.77,84.43,0,34.95-26.26,67.55-58.63,72.7v3.29c39.17,4,68.95,38,68.95,78.57,0,55.34-47.84,94.28-116.09,94.28-61.91,0-108.59-36.12-108.59-73.41C333.21,550.79,342.13,541.41,354.79,541.41Z"/></g></g></svg>