<svg xmlns="http://www.w3.org/2000/svg" viewBox="0 0 888.77 979.38"><defs><style>.cls-1{fill:none;stroke:#fff;stroke-miterlimit:10;stroke-width:9px;opacity:0;}.cls-2{fill:#fff;}</style></defs><title>Honey 2</title><g id="Layer_2" data-name="Layer 2"><g id="Layer_11" data-name="Layer 11"><path class="cls-1" d="M576.4,90.57h0A144.29,144.29,0,0,0,724,175.8h0c124.69-13.56,206.11,127.46,132,228.66h0a144.29,144.29,0,0,0,0,170.46h0c74.09,101.2-7.33,242.22-132,228.66h0A144.29,144.29,0,0,0,576.4,888.81h0c-50.6,114.76-213.43,114.76-264,0h0a144.27,144.27,0,0,0-147.61-85.23h0C40.06,817.14-41.36,676.12,32.73,574.92h0a144.29,144.29,0,0,0,0-170.46h0c-74.09-101.2,7.33-242.22,132-228.66h0A144.27,144.27,0,0,0,312.36,90.57h0C363-24.19,525.8-24.19,576.4,90.57Z"/><path class="cls-2" d="M365.23,567.91,457.4,465.66c26-28.62,36.35-47.38,36.35-68,0-29.78-21.34-49.72-53.24-49.72-26.74,0-46.67,15.72-54.64,42.92-5.63,13.37-13.14,19.7-24.16,19.7-13.6,0-23-9.85-23-24.39,0-41,42.21-82.32,104.83-82.32,59.8,0,102.72,37.29,102.72,89.59,0,31.43-13.37,56.05-54.41,100.85l-80,88.65V586H531c15.48,0,25.33,8.44,25.33,22.28,0,13.6-9.38,22-25.33,22H374.37c-19,0-31.42-9.85-31.42-25.33C343,594.65,348.34,586,365.23,567.91Z"/></g></g></svg>