<svg xmlns="http://www.w3.org/2000/svg" viewBox="0 0 888.77 979.38"><defs><style>.cls-1{fill:none;stroke:#fff;stroke-miterlimit:10;stroke-width:9px;}</style></defs><title>Honey</title><g id="Layer_2" data-name="Layer 2"><g id="Layer_11" data-name="Layer 11"><path class="cls-1" d="M576.4,90.57h0A144.29,144.29,0,0,0,724,175.8h0c124.69-13.56,206.11,127.46,132,228.66h0a144.29,144.29,0,0,0,0,170.46h0c74.09,101.2-7.33,242.22-132,228.66h0A144.29,144.29,0,0,0,576.4,888.81h0c-50.6,114.76-213.43,114.76-264,0h0a144.27,144.27,0,0,0-147.61-85.23h0C40.06,817.14-41.36,676.12,32.73,574.92h0a144.29,144.29,0,0,0,0-170.46h0c-74.09-101.2,7.33-242.22,132-228.66h0A144.27,144.27,0,0,0,312.36,90.57h0C363-24.19,525.8-24.19,576.4,90.57Z"/></g></g></svg>