<svg xmlns="http://www.w3.org/2000/svg" viewBox="0 0 888.77 979.38"><defs><style>.cls-1{fill:none;stroke:#fff;stroke-miterlimit:10;stroke-width:9px;opacity:0;}.cls-2{fill:#fff;}</style></defs><title>Honey 1</title><g id="Layer_2" data-name="Layer 2"><g id="Layer_11" data-name="Layer 11"><path class="cls-1" d="M576.4,90.57h0A144.29,144.29,0,0,0,724,175.8h0c124.69-13.56,206.11,127.46,132,228.66h0a144.29,144.29,0,0,0,0,170.46h0c74.09,101.2-7.33,242.22-132,228.66h0A144.29,144.29,0,0,0,576.4,888.81h0c-50.6,114.76-213.43,114.76-264,0h0a144.27,144.27,0,0,0-147.61-85.23h0C40.06,817.14-41.36,676.12,32.73,574.92h0a144.29,144.29,0,0,0,0-170.46h0c-74.09-101.2,7.33-242.22,132-228.66h0A144.27,144.27,0,0,0,312.36,90.57h0C363-24.19,525.8-24.19,576.4,90.57Z"/><path class="cls-2" d="M424.94,373.31h-1.41l-37.76,27c-8.44,5.86-14.07,8-19.93,8a19.32,19.32,0,0,1-19.47-19.7c0-8.44,5.16-16.18,16.19-23.68L406.88,333c15.95-11.26,27-15.48,38.23-15.48,19.23,0,32.36,13.84,32.36,34v262c0,18.3-9.61,28.85-26.26,28.85-16.42,0-26.27-10.79-26.27-28.85Z"/></g></g></svg>