<svg xmlns="http://www.w3.org/2000/svg" viewBox="0 0 888.77 979.38"><defs><style>.cls-1{fill:none;stroke:#fff;stroke-miterlimit:10;stroke-width:9px;opacity:0;}.cls-2{fill:#fff;}</style></defs><title>Honey 4</title><g id="Layer_2" data-name="Layer 2"><g id="Layer_11" data-name="Layer 11"><path class="cls-1" d="M576.4,90.57h0A144.29,144.29,0,0,0,724,175.8h0c124.69-13.56,206.11,127.46,132,228.66h0a144.29,144.29,0,0,0,0,170.46h0c74.09,101.2-7.33,242.22-132,228.66h0A144.29,144.29,0,0,0,576.4,888.81h0c-50.6,114.76-213.43,114.76-264,0h0a144.27,144.27,0,0,0-147.61-85.23h0C40.06,817.14-41.36,676.12,32.73,574.92h0a144.29,144.29,0,0,0,0-170.46h0c-74.09-101.2,7.33-242.22,132-228.66h0A144.27,144.27,0,0,0,312.36,90.57h0C363-24.19,525.8-24.19,576.4,90.57Z"/><path class="cls-2" d="M454.49,567.67H334.64c-21.34,0-34.71-11.49-34.71-30.25,0-9.61,2.82-18.53,11.26-34.94,29.79-54.65,53-93.11,100.14-163,16.89-24.86,30-33.54,50.66-33.54,27,0,42.92,14.78,42.92,40.11v177.3h19.47c15.24,0,24.39,8.44,24.39,22.28s-8.91,22-24.39,22H504.91v38c0,17.12-9.38,27.2-25.33,27.2-15.71,0-25.09-10.08-25.09-27.2Zm0-44.32V353.79h-2.58C418.37,404,374.51,476.68,349.42,521.24v2.11Z"/></g></g></svg>